<svg width="16" height="15" viewBox="0 0 16 15" fill="none" xmlns="http://www.w3.org/2000/svg">
<path d="M7.59964 2.08353L8 2.61865L8.40036 2.08353C9.11842 1.12373 10.2689 0.5 11.552 0.5C13.7295 0.5 15.5 2.2738 15.5 4.472C15.5 5.36962 15.3569 6.19775 15.1083 6.96609L15.1072 6.96934C14.511 8.85605 13.288 10.3801 11.9631 11.5188C10.636 12.6594 9.2354 13.3883 8.33494 13.6946L8.33493 13.6946L8.32959 13.6965C8.26375 13.7197 8.14425 13.74 8 13.74C7.85575 13.74 7.73625 13.7197 7.67041 13.6965L7.67042 13.6965L7.66506 13.6946C6.7646 13.3883 5.364 12.6594 4.0369 11.5188C2.71199 10.3801 1.48896 8.85605 0.892762 6.96934L0.892774 6.96934L0.891722 6.96609C0.643141 6.19775 0.5 5.36962 0.5 4.472C0.5 2.2738 2.27048 0.5 4.448 0.5C5.7311 0.5 6.88158 1.12373 7.59964 2.08353Z" stroke="#BDBDBD"/>
</svg>
