<svg width="24" height="24" viewBox="0 0 24 24" fill="none" xmlns="http://www.w3.org/2000/svg">
<path d="M11.5996 7.08353L12 7.61865L12.4004 7.08353C13.1184 6.12373 14.2689 5.5 15.552 5.5C17.7295 5.5 19.5 7.2738 19.5 9.472C19.5 10.3696 19.3569 11.1977 19.1083 11.9661L19.1072 11.9693C18.511 13.856 17.288 15.3801 15.9631 16.5188C14.636 17.6594 13.2354 18.3883 12.3349 18.6946L12.3349 18.6946L12.3296 18.6965C12.2637 18.7197 12.1443 18.74 12 18.74C11.8557 18.74 11.7363 18.7197 11.6704 18.6965L11.6704 18.6965L11.6651 18.6946C10.7646 18.3883 9.364 17.6594 8.0369 16.5188C6.71199 15.3801 5.48896 13.856 4.89276 11.9693L4.89277 11.9693L4.89172 11.9661C4.64314 11.1977 4.5 10.3696 4.5 9.472C4.5 7.2738 6.27048 5.5 8.448 5.5C9.7311 5.5 10.8816 6.12373 11.5996 7.08353Z" stroke="#333333"/>
</svg>
