<svg width="24" height="24" viewBox="0 0 24 24" fill="none" xmlns="http://www.w3.org/2000/svg">
<path d="M12.71 7.10352H6.48742C5.11973 7.10352 4 8.22325 4 9.59094V18.6769C4 19.8366 4.83181 20.3325 5.84758 19.7646L8.99085 18.013C9.32678 17.8291 9.87066 17.8291 10.1986 18.013L13.3419 19.7646C14.3576 20.3325 15.1894 19.8366 15.1894 18.6769V9.59094C15.1974 8.22325 14.0777 7.10352 12.71 7.10352Z" stroke="#333333" stroke-linecap="round" stroke-linejoin="round"/>
<path d="M15.1974 9.59094V18.6769C15.1974 19.8366 14.3656 20.3245 13.3499 19.7646L10.2066 18.013C9.87067 17.8291 9.32678 17.8291 8.99085 18.013L5.84758 19.7646C4.83181 20.3245 4 19.8366 4 18.6769V9.59094C4 8.22325 5.11973 7.10352 6.48742 7.10352H12.71C14.0777 7.10352 15.1974 8.22325 15.1974 9.59094Z" stroke="#333333" stroke-linecap="round" stroke-linejoin="round"/>
<path d="M19.9963 6.48742V15.5734C19.9963 16.7331 19.1645 17.221 18.1488 16.6611L15.1974 15.0135V9.59072C15.1974 8.22303 14.0777 7.1033 12.71 7.1033H8.79889V6.48742C8.79889 5.11973 9.91862 4 11.2863 4H17.5089C18.8766 4 19.9963 5.11973 19.9963 6.48742Z" stroke="#333333" stroke-linecap="round" stroke-linejoin="round"/>
</svg>
