<svg width="24" height="24" viewBox="0 0 24 24" fill="none" xmlns="http://www.w3.org/2000/svg">
<path d="M11.6279 19.2558C7.42326 19.2558 4 15.8326 4 11.6279C4 7.42326 7.42326 4 11.6279 4C15.8326 4 19.2558 7.42326 19.2558 11.6279C19.2558 15.8326 15.8326 19.2558 11.6279 19.2558ZM11.6279 5.11628C8.03349 5.11628 5.11628 8.04093 5.11628 11.6279C5.11628 15.2149 8.03349 18.1395 11.6279 18.1395C15.2223 18.1395 18.1395 15.2149 18.1395 11.6279C18.1395 8.04093 15.2223 5.11628 11.6279 5.11628Z" fill="#ED9D99"/>
<path d="M19.4418 20.0003C19.3004 20.0003 19.159 19.9482 19.0474 19.8365L17.559 18.3482C17.3432 18.1323 17.3432 17.7751 17.559 17.5593C17.7748 17.3435 18.132 17.3435 18.3479 17.5593L19.8362 19.0477C20.052 19.2635 20.052 19.6207 19.8362 19.8365C19.7246 19.9482 19.5832 20.0003 19.4418 20.0003Z" fill="#ED9D99"/>
</svg>
